<mxfile host="app.diagrams.net" modified="2021-05-22T11:54:22.454Z" agent="5.0 (Macintosh)" etag="AQcZpJfubdLvjh3eF9dE" version="14.7.0" type="github">
  <diagram name="Page-1" id="2c0d36ab-eaac-3732-788b-9136903baeff">
    <mxGraphModel dx="3509.5" dy="2676.5" grid="1" gridSize="10" guides="1" tooltips="1" connect="1" arrows="1" fold="1" page="1" pageScale="1.5" pageWidth="1169" pageHeight="827" background="none" math="0" shadow="0">
      <root>
        <mxCell id="0" />
        <mxCell id="1" parent="0" />
        <mxCell id="cGfIDXa5zT7s5jYRYXFM-146" style="edgeStyle=orthogonalEdgeStyle;rounded=1;orthogonalLoop=1;jettySize=auto;html=1;exitX=0;exitY=0.5;exitDx=0;exitDy=0;entryX=1;entryY=0.5;entryDx=0;entryDy=0;fontSize=24;strokeColor=#FFFFFF;strokeWidth=3;" parent="1" source="cGfIDXa5zT7s5jYRYXFM-123" target="cGfIDXa5zT7s5jYRYXFM-132" edge="1">
          <mxGeometry relative="1" as="geometry">
            <Array as="points">
              <mxPoint x="310" y="85" />
              <mxPoint x="310" y="1090" />
              <mxPoint x="-180" y="1090" />
              <mxPoint x="-180" y="990" />
            </Array>
          </mxGeometry>
        </mxCell>
        <mxCell id="cGfIDXa5zT7s5jYRYXFM-123" value="&lt;div style=&quot;color: rgb(212 , 212 , 212) ; background-color: rgb(30 , 30 , 30) ; font-family: &amp;#34;menlo&amp;#34; , &amp;#34;monaco&amp;#34; , &amp;#34;courier new&amp;#34; , monospace ; font-weight: normal ; font-size: 23px ; line-height: 18px&quot;&gt;&lt;div&gt;&lt;font style=&quot;font-size: 23px&quot;&gt;&lt;span style=&quot;color: #569cd6&quot;&gt;int&lt;/span&gt;&lt;span style=&quot;color: #d4d4d4&quot;&gt; &lt;/span&gt;&lt;span style=&quot;color: #dcdcaa&quot;&gt;get_next_line&lt;/span&gt;&lt;span style=&quot;color: #d4d4d4&quot;&gt;(&lt;/span&gt;&lt;span style=&quot;color: #569cd6&quot;&gt;int&lt;/span&gt;&lt;span style=&quot;color: #d4d4d4&quot;&gt; &lt;/span&gt;&lt;span style=&quot;color: #9cdcfe&quot;&gt;fd&lt;/span&gt;&lt;span style=&quot;color: #d4d4d4&quot;&gt;, &lt;/span&gt;&lt;span style=&quot;color: #569cd6&quot;&gt;char&lt;/span&gt;&lt;span style=&quot;color: #d4d4d4&quot;&gt; **&lt;/span&gt;&lt;span style=&quot;color: #9cdcfe&quot;&gt;line&lt;/span&gt;&lt;span style=&quot;color: #d4d4d4&quot;&gt;)&lt;/span&gt;&lt;/font&gt;&lt;/div&gt;&lt;/div&gt;" style="rounded=0;whiteSpace=wrap;html=1;strokeColor=#6c8ebf;fillColor=#dae8fc;" parent="1" vertex="1">
          <mxGeometry x="560" y="40" width="600" height="90" as="geometry" />
        </mxCell>
        <mxCell id="cGfIDXa5zT7s5jYRYXFM-126" value="static char *save" style="swimlane;fontSize=20;fillColor=#FFFFFF;fontColor=#000000;" parent="1" vertex="1">
          <mxGeometry x="-210" y="-100" width="440" height="180" as="geometry" />
        </mxCell>
        <mxCell id="smTxelb6_2642w6QyUss-38" value="&lt;font style=&quot;font-size: 20px&quot; color=&quot;#F0F0F0&quot;&gt;Zdes text, kotoriy ya pishu v pervoy str&lt;/font&gt;&lt;font style=&quot;font-size: 20px&quot; color=&quot;#F0F0F0&quot;&gt;oke.&lt;br&gt;Tut t&lt;/font&gt;" style="text;html=1;align=center;verticalAlign=middle;resizable=0;points=[];autosize=1;strokeColor=none;fontSize=20;fontColor=#000000;rotation=0;" vertex="1" parent="cGfIDXa5zT7s5jYRYXFM-126">
          <mxGeometry x="20" y="80" width="390" height="50" as="geometry" />
        </mxCell>
        <mxCell id="smTxelb6_2642w6QyUss-27" style="edgeStyle=orthogonalEdgeStyle;rounded=1;orthogonalLoop=1;jettySize=auto;html=1;exitX=0;exitY=0.5;exitDx=0;exitDy=0;entryX=0;entryY=0.5;entryDx=0;entryDy=0;fontSize=20;fontColor=#FF3333;strokeColor=#FF3333;strokeWidth=3;startArrow=none;" edge="1" parent="1" source="smTxelb6_2642w6QyUss-23" target="cGfIDXa5zT7s5jYRYXFM-126">
          <mxGeometry relative="1" as="geometry">
            <Array as="points" />
          </mxGeometry>
        </mxCell>
        <mxCell id="smTxelb6_2642w6QyUss-31" style="edgeStyle=orthogonalEdgeStyle;rounded=1;orthogonalLoop=1;jettySize=auto;html=1;exitX=0;exitY=0.5;exitDx=0;exitDy=0;entryX=0.5;entryY=1;entryDx=0;entryDy=0;fontSize=20;fontColor=#FF3333;strokeColor=#FF3333;strokeWidth=3;" edge="1" parent="1" source="cGfIDXa5zT7s5jYRYXFM-128" target="smTxelb6_2642w6QyUss-23">
          <mxGeometry relative="1" as="geometry" />
        </mxCell>
        <mxCell id="cGfIDXa5zT7s5jYRYXFM-128" value="char *temp" style="swimlane;fontSize=20;fillColor=#FFFFFF;fontColor=#000000;" parent="1" vertex="1">
          <mxGeometry x="-170" y="170" width="450" height="200" as="geometry" />
        </mxCell>
        <mxCell id="smTxelb6_2642w6QyUss-12" value="&lt;font style=&quot;font-size: 20px&quot; color=&quot;#F0F0F0&quot;&gt;Zdes text, kotoriy ya pishu v pervoy str&lt;/font&gt;&lt;font style=&quot;font-size: 20px&quot; color=&quot;#F0F0F0&quot;&gt;oke.&lt;br&gt;Tut t&lt;/font&gt;" style="text;html=1;align=center;verticalAlign=middle;resizable=0;points=[];autosize=1;strokeColor=none;fontSize=20;fontColor=#000000;" vertex="1" parent="cGfIDXa5zT7s5jYRYXFM-128">
          <mxGeometry x="30" y="85" width="390" height="50" as="geometry" />
        </mxCell>
        <mxCell id="cGfIDXa5zT7s5jYRYXFM-129" value="char buff [BUFFER_SIZE]" style="swimlane;fontSize=20;fillColor=#FFFFFF;fontColor=#000000;" parent="1" vertex="1">
          <mxGeometry x="-70" y="490" width="310" height="200" as="geometry" />
        </mxCell>
        <mxCell id="smTxelb6_2642w6QyUss-17" value="&lt;font style=&quot;font-size: 30px&quot; color=&quot;#F0F0F0&quot;&gt;oke. &lt;font color=&quot;#00FFFF&quot;&gt;\n&lt;/font&gt;Tut t&lt;/font&gt;&lt;font style=&quot;font-size: 30px&quot; color=&quot;#F0F0F0&quot;&gt;&lt;font style=&quot;font-size: 30px&quot; color=&quot;#FF3333&quot;&gt;\0&lt;/font&gt;&lt;/font&gt;" style="text;html=1;align=center;verticalAlign=middle;resizable=0;points=[];autosize=1;strokeColor=none;fontSize=20;fontColor=#FF3333;" vertex="1" parent="cGfIDXa5zT7s5jYRYXFM-129">
          <mxGeometry x="55" y="95" width="190" height="30" as="geometry" />
        </mxCell>
        <mxCell id="smTxelb6_2642w6QyUss-16" style="edgeStyle=orthogonalEdgeStyle;rounded=0;orthogonalLoop=1;jettySize=auto;html=1;exitX=0.5;exitY=1;exitDx=0;exitDy=0;entryX=1;entryY=0.5;entryDx=0;entryDy=0;fontSize=20;fontColor=#FF3333;strokeColor=#FF3333;" edge="1" parent="1" source="cGfIDXa5zT7s5jYRYXFM-130" target="cGfIDXa5zT7s5jYRYXFM-132">
          <mxGeometry relative="1" as="geometry" />
        </mxCell>
        <mxCell id="cGfIDXa5zT7s5jYRYXFM-130" value="int byte_read" style="swimlane;fontSize=20;fillColor=#FFFFFF;fontColor=#000000;" parent="1" vertex="1">
          <mxGeometry x="40" y="710" width="200" height="200" as="geometry" />
        </mxCell>
        <mxCell id="cGfIDXa5zT7s5jYRYXFM-138" value="&lt;div style=&quot;font-size: 35px;&quot;&gt;10&lt;/div&gt;&lt;div style=&quot;font-size: 35px;&quot;&gt;&lt;br style=&quot;font-size: 35px;&quot;&gt;&lt;/div&gt;" style="text;html=1;align=center;verticalAlign=middle;resizable=0;points=[];autosize=1;strokeColor=none;fontSize=35;" parent="cGfIDXa5zT7s5jYRYXFM-130" vertex="1">
          <mxGeometry x="75" y="60" width="50" height="90" as="geometry" />
        </mxCell>
        <mxCell id="cGfIDXa5zT7s5jYRYXFM-136" style="edgeStyle=orthogonalEdgeStyle;rounded=0;orthogonalLoop=1;jettySize=auto;html=1;fontSize=20;strokeColor=#0000FF;entryX=0;entryY=0.5;entryDx=0;entryDy=0;" parent="1" source="cGfIDXa5zT7s5jYRYXFM-132" edge="1" target="cGfIDXa5zT7s5jYRYXFM-130">
          <mxGeometry relative="1" as="geometry">
            <mxPoint x="-140" y="900" as="targetPoint" />
            <Array as="points">
              <mxPoint x="-120" y="810" />
            </Array>
          </mxGeometry>
        </mxCell>
        <mxCell id="cGfIDXa5zT7s5jYRYXFM-145" style="edgeStyle=orthogonalEdgeStyle;rounded=0;orthogonalLoop=1;jettySize=auto;html=1;entryX=0.5;entryY=1;entryDx=0;entryDy=0;fontSize=24;strokeColor=#FF3333;strokeWidth=3;" parent="1" source="cGfIDXa5zT7s5jYRYXFM-132" target="cGfIDXa5zT7s5jYRYXFM-150" edge="1">
          <mxGeometry relative="1" as="geometry">
            <mxPoint x="-795" y="326" as="targetPoint" />
          </mxGeometry>
        </mxCell>
        <mxCell id="cGfIDXa5zT7s5jYRYXFM-132" value="&lt;font style=&quot;font-size: 26px&quot; color=&quot;#000000&quot;&gt;read(fd, buff, BUFFER_SIZE)&lt;/font&gt;" style="rounded=0;whiteSpace=wrap;html=1;fontSize=20;fillColor=#FFFFFF;" parent="1" vertex="1">
          <mxGeometry x="-460" y="960" width="450" height="60" as="geometry" />
        </mxCell>
        <mxCell id="cGfIDXa5zT7s5jYRYXFM-137" value="BUFFER_SIZE = 10" style="text;html=1;strokeColor=none;fillColor=none;align=center;verticalAlign=middle;whiteSpace=wrap;rounded=0;fontSize=27;" parent="1" vertex="1">
          <mxGeometry x="680" width="320" height="20" as="geometry" />
        </mxCell>
        <mxCell id="cGfIDXa5zT7s5jYRYXFM-139" value="&lt;font color=&quot;#000000&quot;&gt;while(byte_read &amp;gt; 0)&lt;/font&gt;" style="rounded=0;whiteSpace=wrap;html=1;fontSize=27;fillColor=#FFFFFF;" parent="1" vertex="1">
          <mxGeometry x="696.5" y="215" width="360" height="60" as="geometry" />
        </mxCell>
        <mxCell id="cGfIDXa5zT7s5jYRYXFM-151" style="edgeStyle=orthogonalEdgeStyle;rounded=0;orthogonalLoop=1;jettySize=auto;html=1;exitX=0.75;exitY=1;exitDx=0;exitDy=0;entryX=0.089;entryY=0;entryDx=0;entryDy=0;entryPerimeter=0;fontSize=24;fontColor=#000000;strokeColor=#0000FF;" parent="1" source="cGfIDXa5zT7s5jYRYXFM-150" target="cGfIDXa5zT7s5jYRYXFM-132" edge="1">
          <mxGeometry relative="1" as="geometry" />
        </mxCell>
        <mxCell id="cGfIDXa5zT7s5jYRYXFM-150" value="&lt;font color=&quot;#FF3333&quot;&gt;&lt;u&gt;Zdes text,&lt;/u&gt;&lt;/font&gt; &lt;font color=&quot;#FF0D0D&quot;&gt;kotoriy ya pishu v pervoy str&lt;font color=&quot;#3333FF&quot;&gt;oke.&lt;br&gt;Tut t&lt;/font&gt;&lt;/font&gt;ext, kotoriy ya pishu vo vtoroy stroke.&lt;br&gt;Zdes text, tretey stroki, bro." style="rounded=0;whiteSpace=wrap;html=1;fontSize=24;fontColor=#000000;fillColor=#FFFFFF;" parent="1" vertex="1">
          <mxGeometry x="-1070" y="75" width="570" height="250" as="geometry" />
        </mxCell>
        <mxCell id="cGfIDXa5zT7s5jYRYXFM-154" value="&lt;font style=&quot;font-size: 26px&quot; color=&quot;#000000&quot;&gt;read(fd, buff, BUFFER_SIZE)&lt;/font&gt;" style="rounded=0;whiteSpace=wrap;html=1;fontSize=20;fillColor=#FFFFFF;" parent="1" vertex="1">
          <mxGeometry x="-1710" y="510" width="780" height="70" as="geometry" />
        </mxCell>
        <mxCell id="cGfIDXa5zT7s5jYRYXFM-155" value="&lt;font color=&quot;#FF3333&quot;&gt;&lt;u&gt;Zdes text,&lt;/u&gt;&lt;/font&gt; kotoriy ya pishu v pervoy stroke." style="text;whiteSpace=wrap;html=1;fontSize=35;fontColor=#FF3333;" parent="1" vertex="1">
          <mxGeometry x="-1676.5" y="690" width="800" height="100" as="geometry" />
        </mxCell>
        <mxCell id="cGfIDXa5zT7s5jYRYXFM-157" style="edgeStyle=orthogonalEdgeStyle;rounded=0;orthogonalLoop=1;jettySize=auto;html=1;entryX=0;entryY=0.5;entryDx=0;entryDy=0;fontSize=35;fontColor=#FF3333;strokeColor=#0000FF;strokeWidth=3;" parent="1" source="cGfIDXa5zT7s5jYRYXFM-156" target="cGfIDXa5zT7s5jYRYXFM-150" edge="1">
          <mxGeometry relative="1" as="geometry" />
        </mxCell>
        <mxCell id="cGfIDXa5zT7s5jYRYXFM-156" value="&lt;font color=&quot;#F0F0F0&quot;&gt;FD&lt;/font&gt;" style="text;html=1;strokeColor=none;fillColor=none;align=center;verticalAlign=middle;whiteSpace=wrap;rounded=0;fontSize=35;fontColor=#FF3333;" parent="1" vertex="1">
          <mxGeometry x="-1430" y="190" width="40" height="20" as="geometry" />
        </mxCell>
        <mxCell id="cGfIDXa5zT7s5jYRYXFM-159" value="" style="endArrow=classic;html=1;fontSize=35;fontColor=#FF3333;strokeColor=#0000FF;strokeWidth=3;" parent="1" edge="1">
          <mxGeometry width="50" height="50" relative="1" as="geometry">
            <mxPoint x="-1630" y="840" as="sourcePoint" />
            <mxPoint x="-1520" y="730" as="targetPoint" />
            <Array as="points">
              <mxPoint x="-1570" y="840" />
            </Array>
          </mxGeometry>
        </mxCell>
        <mxCell id="cGfIDXa5zT7s5jYRYXFM-160" value="&lt;font color=&quot;#B5739D&quot;&gt;*buf&lt;/font&gt;" style="text;html=1;align=center;verticalAlign=middle;resizable=0;points=[];autosize=1;strokeColor=none;fontSize=35;fontColor=#FF3333;" parent="1" vertex="1">
          <mxGeometry x="-1730" y="815" width="80" height="50" as="geometry" />
        </mxCell>
        <mxCell id="RViukp85YZKTgGBuz0Ei-7" value="" style="shape=curlyBracket;whiteSpace=wrap;html=1;rounded=1;flipH=1;fontSize=29;fontColor=#F0F0F0;rotation=-90;" parent="1" vertex="1">
          <mxGeometry x="851.5" y="-20" width="50" height="640" as="geometry" />
        </mxCell>
        <mxCell id="smTxelb6_2642w6QyUss-4" style="edgeStyle=orthogonalEdgeStyle;rounded=0;orthogonalLoop=1;jettySize=auto;html=1;entryX=0;entryY=0.5;entryDx=0;entryDy=0;" edge="1" parent="1" source="smTxelb6_2642w6QyUss-3" target="smTxelb6_2642w6QyUss-8">
          <mxGeometry relative="1" as="geometry">
            <mxPoint x="1190" y="630" as="targetPoint" />
          </mxGeometry>
        </mxCell>
        <mxCell id="smTxelb6_2642w6QyUss-34" style="edgeStyle=orthogonalEdgeStyle;rounded=1;orthogonalLoop=1;jettySize=auto;html=1;entryX=0.5;entryY=0;entryDx=0;entryDy=0;fontSize=20;fontColor=#FF3333;strokeColor=#FFFFFF;strokeWidth=3;" edge="1" parent="1" source="smTxelb6_2642w6QyUss-3" target="smTxelb6_2642w6QyUss-9">
          <mxGeometry relative="1" as="geometry" />
        </mxCell>
        <mxCell id="smTxelb6_2642w6QyUss-3" value="&lt;font style=&quot;font-size: 20px&quot;&gt;if(save == NULL&lt;/font&gt;" style="rounded=0;whiteSpace=wrap;html=1;" vertex="1" parent="1">
          <mxGeometry x="690" y="540" width="380" height="60" as="geometry" />
        </mxCell>
        <mxCell id="smTxelb6_2642w6QyUss-33" style="edgeStyle=orthogonalEdgeStyle;rounded=1;orthogonalLoop=1;jettySize=auto;html=1;entryX=1;entryY=0.5;entryDx=0;entryDy=0;fontSize=20;fontColor=#FF3333;strokeColor=#FFFFFF;strokeWidth=3;" edge="1" parent="1" source="smTxelb6_2642w6QyUss-8" target="smTxelb6_2642w6QyUss-9">
          <mxGeometry relative="1" as="geometry">
            <Array as="points">
              <mxPoint x="1370" y="720" />
            </Array>
          </mxGeometry>
        </mxCell>
        <mxCell id="smTxelb6_2642w6QyUss-8" value="&lt;font style=&quot;font-size: 20px&quot; color=&quot;#FFFFFF&quot;&gt;save =&lt;font style=&quot;font-size: 20px&quot;&gt;ft_strdup(&quot; &quot;)&lt;/font&gt;&lt;/font&gt;" style="rounded=0;whiteSpace=wrap;html=1;fontColor=#000000;" vertex="1" parent="1">
          <mxGeometry x="1220" y="600" width="390" height="60" as="geometry" />
        </mxCell>
        <mxCell id="smTxelb6_2642w6QyUss-10" style="edgeStyle=orthogonalEdgeStyle;rounded=1;orthogonalLoop=1;jettySize=auto;html=1;entryX=1;entryY=0.5;entryDx=0;entryDy=0;fontSize=20;fontColor=#000000;strokeColor=#FF3333;strokeWidth=3;" edge="1" parent="1" source="smTxelb6_2642w6QyUss-9" target="cGfIDXa5zT7s5jYRYXFM-128">
          <mxGeometry relative="1" as="geometry" />
        </mxCell>
        <mxCell id="smTxelb6_2642w6QyUss-35" style="edgeStyle=orthogonalEdgeStyle;rounded=1;orthogonalLoop=1;jettySize=auto;html=1;exitX=0.5;exitY=1;exitDx=0;exitDy=0;entryX=0.5;entryY=0;entryDx=0;entryDy=0;fontSize=20;fontColor=#FF3333;strokeColor=#FFFFFF;strokeWidth=3;" edge="1" parent="1" source="smTxelb6_2642w6QyUss-9" target="smTxelb6_2642w6QyUss-22">
          <mxGeometry relative="1" as="geometry" />
        </mxCell>
        <mxCell id="smTxelb6_2642w6QyUss-9" value="&lt;div style=&quot;color: rgb(212, 212, 212); background-color: rgb(30, 30, 30); font-family: &amp;quot;menlo&amp;quot;, &amp;quot;monaco&amp;quot;, &amp;quot;courier new&amp;quot;, monospace; font-weight: normal; font-size: 20px; line-height: 18px;&quot;&gt;&lt;div style=&quot;font-size: 20px;&quot;&gt;&lt;span style=&quot;color: rgb(212, 212, 212); font-size: 20px;&quot;&gt;temp = &lt;/span&gt;&lt;span style=&quot;color: rgb(220, 220, 170); font-size: 20px;&quot;&gt;ft_strjoin&lt;/span&gt;&lt;span style=&quot;color: rgb(212, 212, 212); font-size: 20px;&quot;&gt;(save,buf);&lt;/span&gt;&lt;/div&gt;&lt;/div&gt;" style="rounded=0;whiteSpace=wrap;html=1;fontColor=#000000;strokeWidth=3;fontSize=20;" vertex="1" parent="1">
          <mxGeometry x="650" y="690" width="460" height="60" as="geometry" />
        </mxCell>
        <mxCell id="smTxelb6_2642w6QyUss-20" style="edgeStyle=orthogonalEdgeStyle;rounded=1;orthogonalLoop=1;jettySize=auto;html=1;entryX=1;entryY=0.5;entryDx=0;entryDy=0;fontSize=20;fontColor=#FF3333;strokeColor=#FF3333;strokeWidth=3;" edge="1" parent="1" source="smTxelb6_2642w6QyUss-18" target="cGfIDXa5zT7s5jYRYXFM-129">
          <mxGeometry relative="1" as="geometry" />
        </mxCell>
        <mxCell id="smTxelb6_2642w6QyUss-32" style="edgeStyle=orthogonalEdgeStyle;rounded=1;orthogonalLoop=1;jettySize=auto;html=1;entryX=0.5;entryY=0;entryDx=0;entryDy=0;fontSize=20;fontColor=#FF3333;strokeWidth=3;strokeColor=#FFFFFF;" edge="1" parent="1" source="smTxelb6_2642w6QyUss-18" target="smTxelb6_2642w6QyUss-3">
          <mxGeometry relative="1" as="geometry" />
        </mxCell>
        <mxCell id="smTxelb6_2642w6QyUss-18" value="&lt;font color=&quot;#FFFFFF&quot;&gt;buf[byte_read] = &#39;\0&#39;;&lt;/font&gt;" style="rounded=0;whiteSpace=wrap;html=1;fontSize=20;fontColor=#FF3333;strokeWidth=3;" vertex="1" parent="1">
          <mxGeometry x="686.5" y="390" width="383.5" height="60" as="geometry" />
        </mxCell>
        <mxCell id="smTxelb6_2642w6QyUss-36" style="edgeStyle=orthogonalEdgeStyle;rounded=1;orthogonalLoop=1;jettySize=auto;html=1;entryX=0.305;entryY=1.069;entryDx=0;entryDy=0;entryPerimeter=0;fontSize=20;fontColor=#FF3333;strokeColor=#FFFFFF;strokeWidth=3;" edge="1" parent="1" source="smTxelb6_2642w6QyUss-22" target="smTxelb6_2642w6QyUss-23">
          <mxGeometry relative="1" as="geometry">
            <Array as="points">
              <mxPoint x="877" y="930" />
              <mxPoint x="-360" y="930" />
              <mxPoint x="-360" y="219" />
            </Array>
          </mxGeometry>
        </mxCell>
        <mxCell id="smTxelb6_2642w6QyUss-50" style="edgeStyle=orthogonalEdgeStyle;rounded=1;orthogonalLoop=1;jettySize=auto;html=1;entryX=0.5;entryY=0;entryDx=0;entryDy=0;fontSize=20;fontColor=#FF3333;strokeColor=#FFFFFF;strokeWidth=3;" edge="1" parent="1" source="smTxelb6_2642w6QyUss-22" target="smTxelb6_2642w6QyUss-41">
          <mxGeometry relative="1" as="geometry" />
        </mxCell>
        <mxCell id="smTxelb6_2642w6QyUss-22" value="&lt;font color=&quot;#FFFFFF&quot;&gt;free(save)&lt;/font&gt;" style="rounded=0;whiteSpace=wrap;html=1;fontSize=20;fontColor=#FF3333;strokeWidth=3;" vertex="1" parent="1">
          <mxGeometry x="785" y="815" width="190" height="80" as="geometry" />
        </mxCell>
        <mxCell id="smTxelb6_2642w6QyUss-23" value="&lt;div style=&quot;color: rgb(212 , 212 , 212) ; background-color: rgb(30 , 30 , 30) ; font-family: &amp;#34;menlo&amp;#34; , &amp;#34;monaco&amp;#34; , &amp;#34;courier new&amp;#34; , monospace ; font-weight: normal ; line-height: 18px&quot;&gt;&lt;div&gt;&lt;font style=&quot;font-size: 20px&quot;&gt;&lt;span style=&quot;color: #d4d4d4&quot;&gt;save = temp;&lt;/span&gt;&lt;/font&gt;&lt;/div&gt;&lt;/div&gt;" style="rounded=0;whiteSpace=wrap;html=1;fontSize=20;fontColor=#FF3333;strokeWidth=3;" vertex="1" parent="1">
          <mxGeometry x="-450" y="155" width="250" height="60" as="geometry" />
        </mxCell>
        <mxCell id="smTxelb6_2642w6QyUss-42" style="edgeStyle=orthogonalEdgeStyle;rounded=1;orthogonalLoop=1;jettySize=auto;html=1;fontSize=20;fontColor=#FF3333;strokeColor=#FFFFFF;strokeWidth=3;entryX=1;entryY=0.75;entryDx=0;entryDy=0;startArrow=none;" edge="1" parent="1" source="smTxelb6_2642w6QyUss-44" target="cGfIDXa5zT7s5jYRYXFM-123">
          <mxGeometry relative="1" as="geometry">
            <mxPoint x="1630" y="320" as="targetPoint" />
            <Array as="points">
              <mxPoint x="1700" y="565" />
              <mxPoint x="1700" y="108" />
            </Array>
          </mxGeometry>
        </mxCell>
        <mxCell id="smTxelb6_2642w6QyUss-47" style="edgeStyle=orthogonalEdgeStyle;rounded=1;orthogonalLoop=1;jettySize=auto;html=1;fontSize=20;fontColor=#FF3333;strokeColor=#FFFFFF;strokeWidth=3;" edge="1" parent="1" source="smTxelb6_2642w6QyUss-41" target="smTxelb6_2642w6QyUss-44">
          <mxGeometry relative="1" as="geometry" />
        </mxCell>
        <mxCell id="smTxelb6_2642w6QyUss-41" value="&lt;div style=&quot;color: rgb(212 , 212 , 212) ; background-color: rgb(30 , 30 , 30) ; font-family: &amp;#34;menlo&amp;#34; , &amp;#34;monaco&amp;#34; , &amp;#34;courier new&amp;#34; , monospace ; font-weight: normal ; line-height: 18px&quot;&gt;&lt;div&gt;&lt;font style=&quot;font-size: 20px&quot;&gt;&lt;span style=&quot;color: #c586c0&quot;&gt;if&lt;/span&gt;&lt;span style=&quot;color: #d4d4d4&quot;&gt; (&lt;/span&gt;&lt;span style=&quot;color: #dcdcaa&quot;&gt;ft_strchr&lt;/span&gt;&lt;span style=&quot;color: #d4d4d4&quot;&gt;(buf, &lt;/span&gt;&lt;span style=&quot;color: #ce9178&quot;&gt;&#39;&lt;/span&gt;&lt;span style=&quot;color: #d7ba7d&quot;&gt;\n&lt;/span&gt;&lt;span style=&quot;color: #ce9178&quot;&gt;&#39;&lt;/span&gt;&lt;span style=&quot;color: #d4d4d4&quot;&gt;))&lt;/span&gt;&lt;/font&gt;&lt;/div&gt;&lt;/div&gt;" style="rounded=0;whiteSpace=wrap;html=1;fontSize=20;fontColor=#FF3333;strokeWidth=3;" vertex="1" parent="1">
          <mxGeometry x="560" y="980" width="648.5" height="80" as="geometry" />
        </mxCell>
        <mxCell id="smTxelb6_2642w6QyUss-51" style="edgeStyle=orthogonalEdgeStyle;rounded=1;orthogonalLoop=1;jettySize=auto;html=1;entryX=1;entryY=0.5;entryDx=0;entryDy=0;fontSize=20;fontColor=#FF3333;strokeColor=#FFFFFF;strokeWidth=3;" edge="1" parent="1" source="smTxelb6_2642w6QyUss-44" target="smTxelb6_2642w6QyUss-49">
          <mxGeometry relative="1" as="geometry">
            <Array as="points">
              <mxPoint x="2040" y="565" />
              <mxPoint x="2040" y="1160" />
            </Array>
          </mxGeometry>
        </mxCell>
        <mxCell id="smTxelb6_2642w6QyUss-44" value="&lt;font style=&quot;font-size: 30px&quot;&gt;BREAK&lt;/font&gt;" style="text;html=1;align=center;verticalAlign=middle;resizable=0;points=[];autosize=1;strokeColor=none;fontSize=20;fontColor=#FF3333;" vertex="1" parent="1">
          <mxGeometry x="1753.5" y="550" width="120" height="30" as="geometry" />
        </mxCell>
        <mxCell id="smTxelb6_2642w6QyUss-52" style="edgeStyle=orthogonalEdgeStyle;rounded=1;orthogonalLoop=1;jettySize=auto;html=1;fontSize=20;fontColor=#FF3333;strokeColor=#FFFFFF;strokeWidth=3;" edge="1" parent="1" source="smTxelb6_2642w6QyUss-49">
          <mxGeometry relative="1" as="geometry">
            <mxPoint x="890" y="1360" as="targetPoint" />
          </mxGeometry>
        </mxCell>
        <mxCell id="smTxelb6_2642w6QyUss-49" value="&lt;div style=&quot;color: rgb(212 , 212 , 212) ; background-color: rgb(30 , 30 , 30) ; font-family: &amp;#34;menlo&amp;#34; , &amp;#34;monaco&amp;#34; , &amp;#34;courier new&amp;#34; , monospace ; font-weight: normal ; line-height: 18px ; font-size: 21px&quot;&gt;&lt;div&gt;&lt;span style=&quot;color: #c586c0&quot;&gt;return&lt;/span&gt;&lt;span style=&quot;color: #d4d4d4&quot;&gt; &lt;/span&gt;&lt;span style=&quot;color: #dcdcaa&quot;&gt;check_line&lt;/span&gt;&lt;span style=&quot;color: #d4d4d4&quot;&gt;(&amp;amp;save, line);&lt;/span&gt;&lt;/div&gt;&lt;/div&gt;" style="rounded=0;whiteSpace=wrap;html=1;fontSize=20;fontColor=#FF3333;strokeWidth=3;" vertex="1" parent="1">
          <mxGeometry x="560" y="1130" width="660" height="60" as="geometry" />
        </mxCell>
        <mxCell id="smTxelb6_2642w6QyUss-56" style="edgeStyle=orthogonalEdgeStyle;rounded=1;orthogonalLoop=1;jettySize=auto;html=1;exitX=0.5;exitY=1;exitDx=0;exitDy=0;fontSize=20;fontColor=#FF3333;strokeColor=#FFFFFF;strokeWidth=3;" edge="1" parent="1" source="smTxelb6_2642w6QyUss-53" target="smTxelb6_2642w6QyUss-55">
          <mxGeometry relative="1" as="geometry" />
        </mxCell>
        <mxCell id="smTxelb6_2642w6QyUss-53" value="&lt;div style=&quot;color: rgb(212 , 212 , 212) ; background-color: rgb(30 , 30 , 30) ; font-family: &amp;#34;menlo&amp;#34; , &amp;#34;monaco&amp;#34; , &amp;#34;courier new&amp;#34; , monospace ; font-weight: normal ; line-height: 18px&quot;&gt;&lt;div&gt;&lt;font style=&quot;font-size: 20px&quot;&gt;&lt;span style=&quot;color: #dcdcaa&quot;&gt;check_line&lt;/span&gt;&lt;span style=&quot;color: #d4d4d4&quot;&gt;(&lt;/span&gt;&lt;span style=&quot;color: #569cd6&quot;&gt;char&lt;/span&gt;&lt;span style=&quot;color: #d4d4d4&quot;&gt; **&lt;/span&gt;&lt;span style=&quot;color: #9cdcfe&quot;&gt;save&lt;/span&gt;&lt;span style=&quot;color: #d4d4d4&quot;&gt;, &lt;/span&gt;&lt;span style=&quot;color: #569cd6&quot;&gt;char&lt;/span&gt;&lt;span style=&quot;color: #d4d4d4&quot;&gt; **&lt;/span&gt;&lt;span style=&quot;color: #9cdcfe&quot;&gt;line&lt;/span&gt;&lt;span style=&quot;color: #d4d4d4&quot;&gt;)&lt;/span&gt;&lt;/font&gt;&lt;/div&gt;&lt;/div&gt;" style="rounded=0;whiteSpace=wrap;html=1;fontSize=20;fontColor=#FF3333;strokeWidth=3;" vertex="1" parent="1">
          <mxGeometry x="579.25" y="1370" width="610" height="60" as="geometry" />
        </mxCell>
        <mxCell id="smTxelb6_2642w6QyUss-54" value="int i &#xa;" style="swimlane;fontSize=20;strokeWidth=3;startSize=50;verticalAlign=bottom;fontColor=#FFFFFF;" vertex="1" parent="1">
          <mxGeometry x="1800" y="1280" width="290" height="230" as="geometry" />
        </mxCell>
        <mxCell id="smTxelb6_2642w6QyUss-62" value="&lt;font style=&quot;font-size: 30px&quot; color=&quot;#F0F0F0&quot;&gt;45&lt;/font&gt;" style="text;html=1;align=center;verticalAlign=middle;resizable=0;points=[];autosize=1;strokeColor=none;fontSize=20;fontColor=#FF3333;" vertex="1" parent="smTxelb6_2642w6QyUss-54">
          <mxGeometry x="115" y="105" width="50" height="30" as="geometry" />
        </mxCell>
        <mxCell id="smTxelb6_2642w6QyUss-57" style="edgeStyle=orthogonalEdgeStyle;rounded=1;orthogonalLoop=1;jettySize=auto;html=1;entryX=0;entryY=0.5;entryDx=0;entryDy=0;fontSize=20;fontColor=#FF3333;strokeColor=#FFFFFF;strokeWidth=3;" edge="1" parent="1" source="smTxelb6_2642w6QyUss-55" target="smTxelb6_2642w6QyUss-54">
          <mxGeometry relative="1" as="geometry">
            <Array as="points">
              <mxPoint x="1500" y="1560" />
              <mxPoint x="1500" y="1395" />
            </Array>
          </mxGeometry>
        </mxCell>
        <mxCell id="smTxelb6_2642w6QyUss-70" style="edgeStyle=orthogonalEdgeStyle;rounded=1;orthogonalLoop=1;jettySize=auto;html=1;entryX=0.5;entryY=0;entryDx=0;entryDy=0;fontSize=20;fontColor=#FFFFFF;strokeColor=#FFFFFF;strokeWidth=3;" edge="1" parent="1" source="smTxelb6_2642w6QyUss-55" target="smTxelb6_2642w6QyUss-65">
          <mxGeometry relative="1" as="geometry" />
        </mxCell>
        <mxCell id="smTxelb6_2642w6QyUss-55" value="&lt;div style=&quot;color: rgb(212 , 212 , 212) ; background-color: rgb(30 , 30 , 30) ; font-family: &amp;#34;menlo&amp;#34; , &amp;#34;monaco&amp;#34; , &amp;#34;courier new&amp;#34; , monospace ; font-weight: normal ; line-height: 18px&quot;&gt;&lt;div&gt;&lt;font style=&quot;font-size: 20px&quot;&gt;&lt;span style=&quot;color: #dcdcaa&quot;&gt;ft_strlen_line&lt;/span&gt;&lt;span style=&quot;color: #d4d4d4&quot;&gt;(*save);&lt;/span&gt;&lt;/font&gt;&lt;/div&gt;&lt;/div&gt;" style="rounded=0;whiteSpace=wrap;html=1;fontSize=20;fontColor=#FF3333;strokeWidth=3;" vertex="1" parent="1">
          <mxGeometry x="568.88" y="1540" width="630.75" height="60" as="geometry" />
        </mxCell>
        <mxCell id="smTxelb6_2642w6QyUss-61" style="edgeStyle=orthogonalEdgeStyle;rounded=1;orthogonalLoop=1;jettySize=auto;html=1;entryX=1;entryY=0.75;entryDx=0;entryDy=0;fontSize=20;fontColor=#FF3333;strokeColor=#FFFFFF;strokeWidth=3;" edge="1" parent="1" source="smTxelb6_2642w6QyUss-59" target="smTxelb6_2642w6QyUss-55">
          <mxGeometry relative="1" as="geometry" />
        </mxCell>
        <mxCell id="smTxelb6_2642w6QyUss-82" style="edgeStyle=orthogonalEdgeStyle;rounded=1;orthogonalLoop=1;jettySize=auto;html=1;exitX=0;exitY=1;exitDx=0;exitDy=0;entryX=1;entryY=0;entryDx=0;entryDy=0;fontSize=20;fontColor=#FFFFFF;strokeColor=#FFFFFF;strokeWidth=3;" edge="1" parent="1" source="smTxelb6_2642w6QyUss-59" target="smTxelb6_2642w6QyUss-77">
          <mxGeometry relative="1" as="geometry">
            <Array as="points">
              <mxPoint x="1600" y="1800" />
              <mxPoint x="1600" y="2150" />
              <mxPoint x="1206" y="2150" />
            </Array>
          </mxGeometry>
        </mxCell>
        <mxCell id="smTxelb6_2642w6QyUss-59" value="static char *save" style="swimlane;fontSize=20;fillColor=#FFFFFF;fontColor=#000000;" vertex="1" parent="1">
          <mxGeometry x="1790" y="1620" width="440" height="180" as="geometry" />
        </mxCell>
        <mxCell id="smTxelb6_2642w6QyUss-60" value="&lt;font style=&quot;font-size: 20px&quot; color=&quot;#F0F0F0&quot;&gt;&lt;br&gt;Tut t&lt;/font&gt;" style="text;html=1;align=center;verticalAlign=middle;resizable=0;points=[];autosize=1;strokeColor=none;fontSize=20;fontColor=#000000;rotation=0;" vertex="1" parent="smTxelb6_2642w6QyUss-59">
          <mxGeometry x="195" y="65" width="50" height="50" as="geometry" />
        </mxCell>
        <mxCell id="smTxelb6_2642w6QyUss-71" style="edgeStyle=orthogonalEdgeStyle;rounded=1;orthogonalLoop=1;jettySize=auto;html=1;exitX=0.5;exitY=1;exitDx=0;exitDy=0;entryX=0.5;entryY=0;entryDx=0;entryDy=0;fontSize=20;fontColor=#FFFFFF;strokeColor=#FFFFFF;strokeWidth=3;" edge="1" parent="1" source="smTxelb6_2642w6QyUss-65" target="smTxelb6_2642w6QyUss-69">
          <mxGeometry relative="1" as="geometry" />
        </mxCell>
        <mxCell id="smTxelb6_2642w6QyUss-65" value="char *temp" style="swimlane;fontStyle=0;childLayout=stackLayout;horizontal=1;startSize=26;horizontalStack=0;resizeParent=1;resizeParentMax=0;resizeLast=0;collapsible=1;marginBottom=0;fontSize=20;fontColor=#FFFFFF;strokeWidth=3;" vertex="1" parent="1">
          <mxGeometry x="610" y="1750" width="560" height="52" as="geometry" />
        </mxCell>
        <mxCell id="smTxelb6_2642w6QyUss-73" style="edgeStyle=orthogonalEdgeStyle;rounded=1;orthogonalLoop=1;jettySize=auto;html=1;entryX=0.516;entryY=0.035;entryDx=0;entryDy=0;entryPerimeter=0;fontSize=20;fontColor=#FFFFFF;strokeColor=#FFFFFF;strokeWidth=3;" edge="1" parent="1" source="smTxelb6_2642w6QyUss-69" target="smTxelb6_2642w6QyUss-72">
          <mxGeometry relative="1" as="geometry" />
        </mxCell>
        <mxCell id="smTxelb6_2642w6QyUss-69" value="&lt;div style=&quot;color: rgb(212 , 212 , 212) ; background-color: rgb(30 , 30 , 30) ; font-family: &amp;#34;menlo&amp;#34; , &amp;#34;monaco&amp;#34; , &amp;#34;courier new&amp;#34; , monospace ; font-weight: normal ; line-height: 18px&quot;&gt;&lt;div&gt;&lt;font style=&quot;font-size: 20px&quot;&gt;&lt;span style=&quot;color: #c586c0&quot;&gt;if&lt;/span&gt;&lt;span style=&quot;color: #d4d4d4&quot;&gt;((*save)[i] == &lt;/span&gt;&lt;span style=&quot;color: #ce9178&quot;&gt;&#39;&lt;/span&gt;&lt;span style=&quot;color: #d7ba7d&quot;&gt;\n&lt;/span&gt;&lt;span style=&quot;color: #ce9178&quot;&gt;&#39;&lt;/span&gt;&lt;span style=&quot;color: #d4d4d4&quot;&gt;)&lt;/span&gt;&lt;/font&gt;&lt;/div&gt;&lt;/div&gt;" style="rounded=0;whiteSpace=wrap;html=1;fontSize=20;fontColor=#FFFFFF;strokeWidth=3;" vertex="1" parent="1">
          <mxGeometry x="542.51" y="1900" width="683.5" height="60" as="geometry" />
        </mxCell>
        <mxCell id="smTxelb6_2642w6QyUss-74" style="edgeStyle=orthogonalEdgeStyle;rounded=1;orthogonalLoop=1;jettySize=auto;html=1;fontSize=20;fontColor=#FFFFFF;strokeColor=#FFFFFF;strokeWidth=3;" edge="1" parent="1" source="smTxelb6_2642w6QyUss-72" target="smTxelb6_2642w6QyUss-75">
          <mxGeometry relative="1" as="geometry">
            <mxPoint x="1730" y="1960" as="targetPoint" />
          </mxGeometry>
        </mxCell>
        <mxCell id="smTxelb6_2642w6QyUss-83" style="edgeStyle=orthogonalEdgeStyle;rounded=1;orthogonalLoop=1;jettySize=auto;html=1;entryX=0.5;entryY=0;entryDx=0;entryDy=0;fontSize=20;fontColor=#FFFFFF;strokeColor=#FFFFFF;strokeWidth=3;" edge="1" parent="1" source="smTxelb6_2642w6QyUss-72" target="smTxelb6_2642w6QyUss-77">
          <mxGeometry relative="1" as="geometry" />
        </mxCell>
        <mxCell id="smTxelb6_2642w6QyUss-72" value="&lt;div style=&quot;color: rgb(212 , 212 , 212) ; background-color: rgb(30 , 30 , 30) ; font-family: &amp;#34;menlo&amp;#34; , &amp;#34;monaco&amp;#34; , &amp;#34;courier new&amp;#34; , monospace ; font-weight: normal ; line-height: 18px&quot;&gt;&lt;div&gt;&lt;font style=&quot;font-size: 20px&quot;&gt;&lt;span style=&quot;color: #d4d4d4&quot;&gt;&lt;/span&gt;&lt;span style=&quot;color: #dcdcaa&quot;&gt;ft_substr&lt;/span&gt;&lt;span style=&quot;color: #d4d4d4&quot;&gt;(*save,&lt;/span&gt;&lt;span style=&quot;color: #b5cea8&quot;&gt;0&lt;/span&gt;&lt;span style=&quot;color: #d4d4d4&quot;&gt;,i);&lt;/span&gt;&lt;/font&gt;&lt;/div&gt;&lt;/div&gt;" style="rounded=0;whiteSpace=wrap;html=1;fontSize=20;fontColor=#FFFFFF;strokeWidth=3;" vertex="1" parent="1">
          <mxGeometry x="542.51" y="2050" width="667.49" height="60" as="geometry" />
        </mxCell>
        <mxCell id="smTxelb6_2642w6QyUss-75" value="*line" style="swimlane;fontSize=20;fontColor=#FFFFFF;strokeWidth=3;" vertex="1" parent="1">
          <mxGeometry x="1820" y="1880" width="410" height="200" as="geometry" />
        </mxCell>
        <mxCell id="smTxelb6_2642w6QyUss-76" value="&lt;font style=&quot;font-size: 20px&quot; color=&quot;#F0F0F0&quot;&gt;Zdes text, kotoriy ya pishu v pervoy str&lt;/font&gt;&lt;font style=&quot;font-size: 20px&quot; color=&quot;#F0F0F0&quot;&gt;oke.&lt;font color=&quot;#00FFFF&quot;&gt;\0&lt;/font&gt;&lt;/font&gt;" style="text;html=1;align=center;verticalAlign=middle;resizable=0;points=[];autosize=1;strokeColor=none;fontSize=20;fontColor=#FFFFFF;" vertex="1" parent="smTxelb6_2642w6QyUss-75">
          <mxGeometry y="85" width="410" height="30" as="geometry" />
        </mxCell>
        <mxCell id="smTxelb6_2642w6QyUss-80" style="edgeStyle=orthogonalEdgeStyle;rounded=1;orthogonalLoop=1;jettySize=auto;html=1;entryX=0;entryY=0.5;entryDx=0;entryDy=0;fontSize=20;fontColor=#FFFFFF;strokeColor=#FFFFFF;strokeWidth=3;" edge="1" parent="1" source="smTxelb6_2642w6QyUss-77" target="smTxelb6_2642w6QyUss-78">
          <mxGeometry relative="1" as="geometry" />
        </mxCell>
        <mxCell id="smTxelb6_2642w6QyUss-86" style="edgeStyle=orthogonalEdgeStyle;rounded=1;orthogonalLoop=1;jettySize=auto;html=1;exitX=0.5;exitY=1;exitDx=0;exitDy=0;entryX=0.531;entryY=0.011;entryDx=0;entryDy=0;entryPerimeter=0;fontSize=20;fontColor=#FFFFFF;strokeColor=#FFFFFF;strokeWidth=3;" edge="1" parent="1" source="smTxelb6_2642w6QyUss-77" target="smTxelb6_2642w6QyUss-84">
          <mxGeometry relative="1" as="geometry" />
        </mxCell>
        <mxCell id="smTxelb6_2642w6QyUss-77" value="&lt;div style=&quot;color: rgb(212 , 212 , 212) ; background-color: rgb(30 , 30 , 30) ; font-family: &amp;#34;menlo&amp;#34; , &amp;#34;monaco&amp;#34; , &amp;#34;courier new&amp;#34; , monospace ; font-weight: normal ; line-height: 18px&quot;&gt;&lt;div&gt;&lt;font style=&quot;font-size: 20px&quot;&gt;&lt;span style=&quot;color: #dcdcaa&quot;&gt;ft_strdup&lt;/span&gt;&lt;span style=&quot;color: #d4d4d4&quot;&gt;((*save) + i + &lt;/span&gt;&lt;span style=&quot;color: #b5cea8&quot;&gt;1&lt;/span&gt;&lt;span style=&quot;color: #d4d4d4&quot;&gt;);&lt;/span&gt;&lt;/font&gt;&lt;/div&gt;&lt;/div&gt;" style="rounded=0;whiteSpace=wrap;html=1;fontSize=20;fontColor=#FFFFFF;strokeWidth=3;" vertex="1" parent="1">
          <mxGeometry x="548.5" y="2220" width="657.49" height="60" as="geometry" />
        </mxCell>
        <mxCell id="smTxelb6_2642w6QyUss-91" style="edgeStyle=orthogonalEdgeStyle;rounded=1;orthogonalLoop=1;jettySize=auto;html=1;entryX=1;entryY=0.5;entryDx=0;entryDy=0;fontSize=20;fontColor=#FFFFFF;strokeColor=#FFFFFF;strokeWidth=3;" edge="1" parent="1" source="smTxelb6_2642w6QyUss-78" target="smTxelb6_2642w6QyUss-87">
          <mxGeometry relative="1" as="geometry">
            <Array as="points">
              <mxPoint x="2025" y="2530" />
              <mxPoint x="1475" y="2530" />
              <mxPoint x="1475" y="2540" />
            </Array>
          </mxGeometry>
        </mxCell>
        <mxCell id="smTxelb6_2642w6QyUss-78" value="*temp" style="swimlane;fontSize=20;fontColor=#FFFFFF;strokeWidth=3;" vertex="1" parent="1">
          <mxGeometry x="1820" y="2120" width="410" height="200" as="geometry" />
        </mxCell>
        <mxCell id="smTxelb6_2642w6QyUss-79" value="Tut t" style="text;html=1;align=center;verticalAlign=middle;resizable=0;points=[];autosize=1;strokeColor=none;fontSize=20;fontColor=#FFFFFF;" vertex="1" parent="smTxelb6_2642w6QyUss-78">
          <mxGeometry x="180" y="85" width="50" height="30" as="geometry" />
        </mxCell>
        <mxCell id="smTxelb6_2642w6QyUss-90" style="edgeStyle=orthogonalEdgeStyle;rounded=1;orthogonalLoop=1;jettySize=auto;html=1;exitX=0.5;exitY=1;exitDx=0;exitDy=0;fontSize=20;fontColor=#FFFFFF;strokeColor=#FFFFFF;strokeWidth=3;" edge="1" parent="1" source="smTxelb6_2642w6QyUss-84" target="smTxelb6_2642w6QyUss-87">
          <mxGeometry relative="1" as="geometry" />
        </mxCell>
        <mxCell id="smTxelb6_2642w6QyUss-84" value="free(save)" style="whiteSpace=wrap;html=1;fontSize=20;fontColor=#FFFFFF;strokeWidth=3;" vertex="1" parent="1">
          <mxGeometry x="625" y="2370" width="470" height="60" as="geometry" />
        </mxCell>
        <mxCell id="smTxelb6_2642w6QyUss-92" style="edgeStyle=orthogonalEdgeStyle;rounded=1;orthogonalLoop=1;jettySize=auto;html=1;exitX=1;exitY=0;exitDx=0;exitDy=0;fontSize=20;fontColor=#FFFFFF;strokeColor=#FFFFFF;strokeWidth=3;entryX=0.519;entryY=1.056;entryDx=0;entryDy=0;entryPerimeter=0;" edge="1" parent="1" source="smTxelb6_2642w6QyUss-87" target="smTxelb6_2642w6QyUss-60">
          <mxGeometry relative="1" as="geometry">
            <mxPoint x="1890" y="1800" as="targetPoint" />
            <Array as="points">
              <mxPoint x="1130" y="2360" />
              <mxPoint x="1720" y="2360" />
              <mxPoint x="1720" y="1840" />
              <mxPoint x="2011" y="1840" />
            </Array>
          </mxGeometry>
        </mxCell>
        <mxCell id="smTxelb6_2642w6QyUss-87" value="&lt;div style=&quot;color: rgb(212 , 212 , 212) ; background-color: rgb(30 , 30 , 30) ; font-family: &amp;#34;menlo&amp;#34; , &amp;#34;monaco&amp;#34; , &amp;#34;courier new&amp;#34; , monospace ; font-weight: normal ; line-height: 18px&quot;&gt;&lt;div&gt;&lt;font style=&quot;font-size: 20px&quot;&gt;&lt;span style=&quot;color: #d4d4d4&quot;&gt;*save = temp;&lt;/span&gt;&lt;/font&gt;&lt;/div&gt;&lt;/div&gt;" style="rounded=0;whiteSpace=wrap;html=1;fontSize=20;fontColor=#FFFFFF;strokeWidth=3;" vertex="1" parent="1">
          <mxGeometry x="610" y="2510" width="520" height="60" as="geometry" />
        </mxCell>
      </root>
    </mxGraphModel>
  </diagram>
</mxfile>
